<?xml version="1.0" encoding="iso-8859-1"?>
<!-- Generator: Adobe Illustrator 19.0.0, SVG Export Plug-In . SVG Version: 6.00 Build 0)  -->
<svg version="1.1" id="Layer_1" xmlns="http://www.w3.org/2000/svg" xmlns:xlink="http://www.w3.org/1999/xlink" x="0px" y="0px"
	 viewBox="0 0 512 512" style="enable-background:new 0 0 512 512;" xml:space="preserve">
<circle style="fill:#3DC463;" cx="256" cy="256" r="256"/>
<path style="fill:#239E40;" d="M258.705,511.966c137.952-1.431,249.759-111.956,253.212-249.415L320.165,70.799l-23.204,107.256
	l-80.141-80.141l7.816,145.42L167.56,420.819L258.705,511.966z"/>
<path style="fill:#F4E3C3;" d="M146.532,362.308c0-61.409,49.783-111.192,111.192-111.192s111.192,49.783,111.192,111.192
	s-49.783,92.229-111.192,92.229S146.532,423.717,146.532,362.308z"/>
<path style="fill:#FED8B2;" d="M368.916,362.308c0-61.409-49.781-111.192-111.192-111.192v203.421
	C319.135,454.535,368.916,423.717,368.916,362.308z"/>
<path style="fill:#E6F3FF;" d="M183.686,132.22c4.918,21.694,28.92,90.05,45.644,102.116c9.885-18.099,2.06-90.122-2.858-111.816
	c-4.918-21.694-17.494-39.655-34.22-51.721C182.367,88.898,178.767,110.526,183.686,132.22z"/>
<path style="fill:#FF80AA;" d="M189.735,137.328c3.684,16.25,21.661,67.45,34.189,76.488c7.404-13.557,1.543-67.505-2.141-83.754
	c-3.684-16.25-13.103-29.703-25.631-38.741C188.749,104.877,186.051,121.079,189.735,137.328z"/>
<path style="fill:#CFDBE6;" d="M328.733,132.22c-4.918,21.694-28.92,90.05-45.644,102.116c-9.885-18.099-2.06-90.122,2.858-111.816
	c4.918-21.694,17.494-39.655,34.22-51.721C330.05,88.898,333.652,110.526,328.733,132.22z"/>
<path style="fill:#FF6472;" d="M322.682,137.328c-3.684,16.25-21.661,67.45-34.189,76.488c-7.404-13.557-1.543-67.505,2.141-83.754
	s13.103-29.703,25.631-38.741C323.67,104.877,326.366,121.079,322.682,137.328z"/>
<circle style="fill:#FFFFFF;" cx="257.724" cy="257.103" r="74.99"/>
<path style="fill:#E6F3FF;" d="M332.714,257.1c0-41.415-33.575-74.99-74.99-74.99v149.98
	C299.139,332.09,332.714,298.515,332.714,257.1z"/>
<g>
	<circle style="fill:#324A5E;" cx="221.315" cy="267.705" r="4.494"/>
	<circle style="fill:#324A5E;" cx="294.133" cy="267.705" r="4.494"/>
</g>
<path style="fill:#FF80AA;" d="M271.046,302.17c0,2.96-2.408,5.367-5.368,5.367c-2.96,0-5.368-2.407-5.368-5.367v-29.92h-5.172
	v29.92c0,2.96-2.407,5.367-5.367,5.367s-5.368-2.407-5.368-5.367h-5.172c0,5.811,4.729,10.538,10.54,10.538
	c3.175,0,6.02-1.417,7.952-3.644c1.934,2.227,4.779,3.644,7.952,3.644c5.811,0,10.54-4.727,10.54-10.538H271.046z"/>
<path style="fill:#FF6472;" d="M271.046,302.17c0,2.96-2.408,5.367-5.368,5.367c-2.96,0-5.368-2.407-5.368-5.367v-29.92h-2.586
	v36.816c1.934,2.227,4.779,3.644,7.952,3.644c5.811,0,10.54-4.727,10.54-10.538h-5.17V302.17z"/>
<path style="fill:#FD5790;" d="M265.299,267.752c0,4.184-3.391,9.869-7.575,9.869s-7.575-5.687-7.575-9.869
	c0-4.184,3.391-3.903,7.575-3.903S265.299,263.57,265.299,267.752z"/>
<path style="fill:#C75163;" d="M265.299,267.752c0-4.184-3.391-3.903-7.575-3.903v13.772
	C261.908,277.621,265.299,271.936,265.299,267.752z"/>
<g>
</g>
<g>
</g>
<g>
</g>
<g>
</g>
<g>
</g>
<g>
</g>
<g>
</g>
<g>
</g>
<g>
</g>
<g>
</g>
<g>
</g>
<g>
</g>
<g>
</g>
<g>
</g>
<g>
</g>
</svg>
