<?xml version="1.0" ?><svg enable-background="new 0 0 512 512" id="Layer_2" version="1.1" viewBox="0 0 512 512" xml:space="preserve" xmlns="http://www.w3.org/2000/svg" xmlns:xlink="http://www.w3.org/1999/xlink"><g><g><path d="    M449.096,252.762h-88.631c-8.386,0-15.185-6.798-15.185-15.185v-24.631c0-8.386,6.798-15.185,15.185-15.185h88.631    c8.386,0,15.185,6.798,15.185,15.185v24.631C464.28,245.964,457.482,252.762,449.096,252.762z" fill="none" stroke="#474747" stroke-linecap="round" stroke-linejoin="round" stroke-miterlimit="10" stroke-width="15"/><path d="    M384.28,254.762L384.28,254.762c0,9.458-6.301,17.758-15.411,20.301l-11.809,3.295c-6.856,1.399-11.78,7.43-11.78,14.427v172.344    c0,8.082,6.552,14.633,14.633,14.633h89.733c8.082,0,14.633-6.552,14.633-14.633V292.785c0-6.997-4.924-13.028-11.78-14.427    l-11.809-3.295c-9.11-2.542-15.411-10.842-15.411-20.301v0" fill="none" stroke="#474747" stroke-linecap="round" stroke-linejoin="round" stroke-miterlimit="10" stroke-width="15"/><polyline fill="none" points="    464.28,447.762 385.28,447.762 385.28,307.262 464.28,307.262   " stroke="#474747" stroke-linecap="round" stroke-linejoin="round" stroke-miterlimit="10" stroke-width="15"/></g><g><path d="    M297.096,252.762h-88.631c-8.386,0-15.185-6.798-15.185-15.185v-24.631c0-8.386,6.798-15.185,15.185-15.185h88.631    c8.386,0,15.185,6.798,15.185,15.185v24.631C312.28,245.964,305.482,252.762,297.096,252.762z" fill="none" stroke="#474747" stroke-linecap="round" stroke-linejoin="round" stroke-miterlimit="10" stroke-width="15"/><path d="    M232.28,254.762L232.28,254.762c0,9.458-6.301,17.758-15.411,20.301l-11.809,3.295c-6.856,1.399-11.78,7.43-11.78,14.427v172.344    c0,8.082,6.552,14.633,14.633,14.633h89.734c8.082,0,14.633-6.552,14.633-14.633V292.785c0-6.997-4.924-13.028-11.78-14.427    l-11.809-3.295c-9.11-2.542-15.411-10.842-15.411-20.301v0" fill="none" stroke="#474747" stroke-linecap="round" stroke-linejoin="round" stroke-miterlimit="10" stroke-width="15"/><polyline fill="none" points="    312.28,447.762 233.28,447.762 233.28,307.262 312.28,307.262   " stroke="#474747" stroke-linecap="round" stroke-linejoin="round" stroke-miterlimit="10" stroke-width="15"/></g><g><rect fill="none" height="290.367" stroke="#474747" stroke-linecap="round" stroke-linejoin="round" stroke-miterlimit="10" stroke-width="15" width="91.162" x="60.618" y="151.395"/><rect fill="none" height="24.123" stroke="#474747" stroke-linecap="round" stroke-linejoin="round" stroke-miterlimit="10" stroke-width="15" width="91.162" x="60.28" y="472.139"/><polyline fill="none" points="    84.515,150.501 84.515,124.592 127.884,124.592 127.884,150.501   " stroke="#474747" stroke-linecap="round" stroke-linejoin="round" stroke-miterlimit="10" stroke-width="15"/><line fill="none" stroke="#474747" stroke-linecap="round" stroke-linejoin="round" stroke-miterlimit="10" stroke-width="15" x1="106.199" x2="106.199" y1="124.592" y2="15.762"/><g><line fill="none" stroke="#474747" stroke-linecap="round" stroke-linejoin="round" stroke-miterlimit="10" stroke-width="15" x1="93.487" x2="93.487" y1="441.762" y2="472.139"/><line fill="none" stroke="#474747" stroke-linecap="round" stroke-linejoin="round" stroke-miterlimit="10" stroke-width="15" x1="118.912" x2="118.912" y1="441.762" y2="472.139"/></g><line fill="none" stroke="#474747" stroke-linecap="round" stroke-linejoin="round" stroke-miterlimit="10" stroke-width="15" x1="112.057" x2="146.132" y1="406.025" y2="406.025"/><line fill="none" stroke="#474747" stroke-linecap="round" stroke-linejoin="round" stroke-miterlimit="10" stroke-width="15" x1="112.057" x2="146.132" y1="350.967" y2="350.967"/><line fill="none" stroke="#474747" stroke-linecap="round" stroke-linejoin="round" stroke-miterlimit="10" stroke-width="15" x1="112.057" x2="146.132" y1="295.908" y2="295.908"/><line fill="none" stroke="#474747" stroke-linecap="round" stroke-linejoin="round" stroke-miterlimit="10" stroke-width="15" x1="112.057" x2="146.132" y1="240.85" y2="240.85"/><line fill="none" stroke="#474747" stroke-linecap="round" stroke-linejoin="round" stroke-miterlimit="10" stroke-width="15" x1="112.057" x2="146.132" y1="185.792" y2="185.792"/><line fill="none" stroke="#474747" stroke-linecap="round" stroke-linejoin="round" stroke-miterlimit="10" stroke-width="15" x1="136.268" x2="146.132" y1="379.222" y2="379.222"/><line fill="none" stroke="#474747" stroke-linecap="round" stroke-linejoin="round" stroke-miterlimit="10" stroke-width="15" x1="136.268" x2="146.132" y1="324.163" y2="324.163"/><line fill="none" stroke="#474747" stroke-linecap="round" stroke-linejoin="round" stroke-miterlimit="10" stroke-width="15" x1="136.268" x2="146.132" y1="269.105" y2="269.105"/><line fill="none" stroke="#474747" stroke-linecap="round" stroke-linejoin="round" stroke-miterlimit="10" stroke-width="15" x1="136.268" x2="146.132" y1="214.047" y2="214.047"/></g></g></svg>