<?xml version="1.0" ?><!DOCTYPE svg  PUBLIC '-//W3C//DTD SVG 1.1//EN'  'http://www.w3.org/Graphics/SVG/1.1/DTD/svg11.dtd'><svg enable-background="new 0 0 512 512" height="512px" id="Pets" version="1.1" viewBox="0 0 512 512" width="512px" xml:space="preserve" xmlns="http://www.w3.org/2000/svg" xmlns:xlink="http://www.w3.org/1999/xlink"><g><path d="M422.668,138.812c-0.197-2.607-0.272-5.217-0.353-7.981l-0.018-0.603c-0.701-24.193-17.559-44.014-38.813-46.21   c-14.603-12.801-34.676-18.875-54.89-15.636l-211.568,33.876l-2.885,0.462l-30.831,4.936v5.116   c0,33.126,12.99,56.987,38.609,70.918c20.332,11.056,48.458,16.205,88.514,16.205h33.615c4.143,0,7.798,2.001,10.031,5.49   c2.232,3.489,2.518,7.646,0.782,11.407l-26.682,57.836c-13.118,3.178-25.453,9.538-36.36,18.871   c-14.438,12.353-25.518,29.515-31.521,48.7H131.36v47.173c0,28.749,20.048,52.64,45.308,54.845l0.18,0.261h142.011l1.792-2.551   c13.116-18.669,20.049-41.134,20.049-64.967c0-5.163-0.337-10.272-0.991-15.312h65.98V251.167   c4.789-1.539,9.226-4.346,12.984-8.291c6.06-6.358,9.611-14.92,10.001-24.11l0.016-0.354L422.668,138.812z M95.423,117.87   l18.719-2.998v19.504H97.662C96.432,129.271,95.688,123.776,95.423,117.87z M143.36,354.199h15.974   c-1.88,8.047-8.055,14.453-15.974,16.661V354.199z M312.563,432.478H183.066l-0.04-0.056l-3.001-0.043   c-20.217-0.289-36.665-19.582-36.665-43.007v-7.085c15.746-2.868,27.724-16.675,27.724-33.236v-0.983   c5.152-17.975,15.232-34.065,28.537-45.45c6.709-5.74,14.031-10.171,21.759-13.248c4.899-1.95,9.964-3.349,15.144-4.18   c3.731-0.598,7.519-0.918,11.351-0.918c9.625,0,19.049,1.927,28.01,5.728l8.343,3.538v-35.944   c21.395,2.934,37.927,21.331,37.927,43.519v39.262l0.36,0.993c0.989,2.722,1.854,5.485,2.607,8.282   c1.061,3.934,1.87,7.941,2.459,12c0.73,5.028,1.119,10.137,1.119,15.312C328.699,397.23,323.13,416.356,312.563,432.478z    M393.688,349.648h-56.205c-0.921-3.846-2.015-7.645-3.33-11.372v-37.165c0-30.838-25.089-55.928-55.927-55.928h-6v30.729   c-7.903-2.419-16.062-3.641-24.353-3.641c-1.837,0-3.663,0.08-5.481,0.197l23.366-50.649c3.433-7.44,2.845-16.002-1.571-22.903   c-4.417-6.901-11.945-11.021-20.139-11.021h-33.615c-60.763,0-95.289-12.743-108.64-41.519h24.348v-33.426l204.35-32.72   c12.521-2.004,24.968,0.332,35.464,6.089c-15.49,5.82-27.494,21.241-29.67,40.25l-0.087,0.762c-0.31,2.708-0.603,5.265-1.011,7.812   l-12.739,79.38l-0.07,0.696c-0.822,19.345,12.616,35.683,29.956,36.42l41.354,0.833V349.648z M409.986,234.597   c-1.32,1.387-2.77,2.527-4.298,3.442c-2.917,1.748-6.142,2.624-9.443,2.483l-2.557-0.052l-40.907-0.824   c-10.605-0.491-18.81-11.022-18.427-23.585l12.681-79.017c0.452-2.814,0.774-5.628,1.085-8.35l0.087-0.759   c2.043-17.847,15.155-31.505,30.324-32.096c0.711-0.027,1.425-0.037,2.145-0.006c6.775,0.288,13.003,3.175,17.986,7.818   c6.835,6.37,11.326,16.051,11.642,26.923l0.017,0.6c0.08,2.78,0.163,5.654,0.382,8.541l5.967,78.876   C416.332,224.748,413.967,230.42,409.986,234.597z"/><rect height="12" width="57.9" x="204.361" y="380"/><rect height="12" transform="matrix(-0.9821 -0.1885 0.1885 -0.9821 385.7054 850.8812)" width="56.949" x="204.837" y="401.1"/><rect height="17.962" width="16" x="196.48" y="339.601"/><rect height="21.962" width="20" x="267.157" y="114.675"/></g></svg>